# xmcd
#
# Track frame offsets: 
#        183
#        14383
#        25245
#        38283
#        65095
#        79758
#        96570
#        109383
#        124408
#        145233
#
# Disc length: 2102 seconds
#
# Revision: 8
# Processed by: cddbd v1.5.2PL0 Copyright (c) Steve Scherf et al.
# Submitted via: ExactAudioCopy v1.0b3
#
DISCID=8908340a
DTITLE=Dr John - Loser For You Baby
DYEAR=1992
DGENRE=Rock
TTITLE0=Loser For You Baby
TTITLE1=The Ear Is On Strike
TTITLE2=I Pulled The Covers Off You Two Lovers
TTITLE3=Bring Your Love
TTITLE4=Make Your Own
TTITLE5=The Time Had To Come
TTITLE6=In The Night
TTITLE7=Zu Zu Man
TTITLE8=Mean Cheatin' Woman
TTITLE9=Go Ahead On
EXTD=\nMastered by Theo Ceelen DIGIPRO NederlandBVLicensed from Red Do
EXTD=g Express\ncompilation 1991 zillion records,\n1992              2
EXTD=610182
EXTT0=
EXTT1=
EXTT2=
EXTT3=
EXTT4=
EXTT5=
EXTT6=
EXTT7=
EXTT8=
EXTT9=
PLAYORDER=
